HIERARCHY
ROOT hip
{
	OFFSET 0.000000 0.000000 0.000000 
	CHANNELS 6 Xposition Yposition Zposition Xrotation Zrotation Yrotation
	JOINT abdomen
	{
		OFFSET 0.000000 3.402643 0.000000 
		CHANNELS 3 Xrotation Zrotation Yrotation
		JOINT chest
		{
			OFFSET 0.000000 8.438565 -0.680529 
			CHANNELS 3 Xrotation Zrotation Yrotation
			JOINT neck
			{
				OFFSET 0.000000 10.207942 -0.272212 
				CHANNELS 3 Xrotation Zrotation Yrotation
				JOINT head
				{
					OFFSET 0.000000 3.130431 0.000000 
					CHANNELS 3 Xrotation Zrotation Yrotation
					End Site
					{
						OFFSET 0.000000 3.130435 0.000000 
					}
				}
			}
			JOINT lCollar
			{
				OFFSET 3.470700 6.669187 -0.816635 
				CHANNELS 3 Yrotation Zrotation Xrotation
				JOINT lShldr
				{
					OFFSET 3.198488 0.000000 0.000000 
					CHANNELS 3 Zrotation Yrotation Xrotation
					JOINT lForeArm
					{
						OFFSET 10.139888 0.000000 0.000000 
						CHANNELS 3 Yrotation Zrotation Xrotation
						JOINT lHand
						{
							OFFSET 8.370511 0.000000 0.000000 
							CHANNELS 3 Zrotation Yrotation Xrotation
							End Site
							{
								OFFSET 4.083176 0.000000 0.000000 
							}
						}
					}
				}
			}
			JOINT rCollar
			{
				OFFSET -3.470700 6.669187 -0.816635 
				CHANNELS 3 Yrotation Zrotation Xrotation
				JOINT rShldr
				{
					OFFSET -3.198488 0.000000 0.000000 
					CHANNELS 3 Zrotation Yrotation Xrotation
					JOINT rForeArm
					{
						OFFSET -10.139888 0.000000 0.000000 
						CHANNELS 3 Yrotation Zrotation Xrotation
						JOINT rHand
						{
							OFFSET -8.370511 0.000000 0.000000 
							CHANNELS 3 Zrotation Yrotation Xrotation
							End Site
							{
								OFFSET -4.083176 0.000000 0.000000 
							}
						}
					}
				}
			}
		}
	}
	JOINT lThigh
	{
		OFFSET 5.308129 -1.633274 1.361059 
		CHANNELS 3 Xrotation Zrotation Yrotation
		JOINT lShin
		{
			OFFSET -2.041588 -20.007561 0.000000 
			CHANNELS 3 Xrotation Zrotation Yrotation
			JOINT lFoot
			{
				OFFSET 0.000000 -19.190928 -1.224953 
				CHANNELS 3 Xrotation Yrotation Zrotation
				End Site
				{
					OFFSET 0.000000 -2.449906 4.627600 
				}
			}
		}
	}
	JOINT rThigh
	{
		OFFSET -5.308129 -1.633274 1.361059 
		CHANNELS 3 Xrotation Zrotation Yrotation
		JOINT rShin
		{
			OFFSET 2.041588 -20.007561 0.000000 
			CHANNELS 3 Xrotation Zrotation Yrotation
			JOINT rFoot
			{
				OFFSET 0.000000 -19.190928 -1.224953 
				CHANNELS 3 Xrotation Yrotation Zrotation
				End Site
				{
					OFFSET 0.000000 -2.449906 4.627600 
				}
			}
		}
	}
}
MOTION
Frames: 10
Frame Time: 0.016667
-0.049061 48.994236 -1.427558 -4.219359 14.411808 2.389846 8.516807 2.454571 4.125252 0.000000 0.000000 0.000000 2.108506 -9.591555 -8.548251 0.000000 0.000000 0.000000 0.000000 0.000000 0.000000 -63.895485 -6.645484 85.946564 -14.362267 7.463698 -10.061101 -13.792265 -1.499353 -30.170933 0.000000 0.000000 0.000000 68.649353 -2.363790 68.749046 6.409858 -6.918973 -7.493745 -6.874423 31.009596 -36.500351 -3.961817 -10.998281 2.436872 10.626187 -0.958965 -5.392426 -2.100134 0.360655 -2.379836 -14.461760 -9.999166 -4.128082 38.164574 -5.644375 -7.130207 -22.565718 2.978978 -1.909068 
-0.116239 48.887871 -1.477942 -3.523788 13.710326 2.273730 8.084210 2.268727 4.388280 0.000000 0.000000 0.000000 1.404965 -8.965645 -8.453837 0.000000 0.000000 0.000000 0.000000 0.000000 0.000000 -63.984612 -6.809382 85.879875 -14.422984 7.184114 -10.045002 -13.209592 -1.139451 -29.771009 0.000000 0.000000 0.000000 68.743271 -2.022833 69.204041 6.486531 -6.940310 -7.580240 -6.604406 30.881245 -36.529915 -4.381552 -10.276232 2.787529 10.264680 -0.949174 -5.375184 -2.036903 0.428242 -2.457716 -14.545147 -9.283179 -3.984986 36.584732 -5.468527 -6.783834 -21.521585 2.827007 -2.329311 
-0.161026 48.708725 -1.405162 -2.549117 12.734949 2.212724 7.553749 2.101624 4.915601 0.000000 0.000000 0.000000 0.513100 -8.175186 -8.357644 0.000000 0.000000 0.000000 0.000000 0.000000 0.000000 -64.049271 -7.094728 86.046188 -14.495496 6.808769 -9.960360 -12.096892 -0.556399 -29.095049 0.000000 0.000000 0.000000 68.837212 -1.611299 69.624428 6.652799 -6.971293 -7.645993 -6.223110 30.523254 -36.659550 -4.714196 -9.232934 3.311926 9.755396 -0.929361 -5.682159 -1.938175 0.507244 -2.615000 -14.382030 -8.426009 -3.697913 34.323776 -5.117109 -6.551727 -20.189726 2.856047 -2.728951 
-0.205812 48.529587 -1.332387 -1.585860 11.769398 2.135525 7.019299 1.924883 5.442607 0.000000 0.000000 0.000000 -0.365065 -7.384173 -8.272684 0.000000 0.000000 0.000000 0.000000 0.000000 0.000000 -64.117073 -7.370974 86.216835 -14.577654 6.432453 -9.867481 -10.976931 0.010141 -28.400898 0.000000 0.000000 0.000000 68.933395 -1.190282 70.044601 6.819017 -7.002672 -7.711630 -5.856892 30.169788 -36.796021 -5.025372 -8.168980 3.838137 9.204300 -0.918085 -6.046645 -1.858630 0.629104 -2.765853 -14.192388 -7.525412 -3.400160 32.046978 -4.755675 -6.361760 -18.857311 2.880689 -3.139545 
-0.211408 48.473602 -1.270803 -0.715216 10.802573 2.227420 6.489008 2.098929 5.707155 0.000000 0.000000 0.000000 -1.070082 -7.039019 -8.109086 0.000000 0.000000 0.000000 0.000000 0.000000 0.000000 -64.365387 -7.664205 86.611626 -14.647952 6.056714 -9.784843 -9.757475 0.586228 -27.616064 0.000000 0.000000 0.000000 68.838821 -1.108923 70.099617 7.073687 -7.128615 -7.660182 -5.579881 29.830458 -37.321373 -5.371247 -7.216639 4.069956 8.915860 -1.201996 -6.196201 -1.764244 0.916835 -2.577850 -13.924214 -6.747296 -3.170964 30.135624 -4.335783 -5.967332 -17.733126 2.484066 -3.682995 
-0.217001 48.417629 -1.209213 0.159933 9.826154 2.310324 5.960328 2.272769 5.971768 0.000000 0.000000 0.000000 -1.773105 -6.693535 -7.945771 0.000000 0.000000 0.000000 0.000000 0.000000 0.000000 -64.613846 -7.937223 87.010757 -14.719780 5.668689 -9.692245 -8.524161 1.152054 -26.813154 0.000000 0.000000 0.000000 68.747902 -1.027465 70.151451 7.317668 -7.254073 -7.618453 -5.301339 29.494469 -37.839329 -5.710064 -6.257078 4.293831 8.606272 -1.485434 -6.363051 -1.708935 1.179855 -2.347622 -13.646616 -5.964367 -2.927296 28.221308 -3.881978 -5.628788 -16.606550 2.054172 -4.209819 
-0.138625 48.507202 -1.007673 0.604321 9.395052 2.563895 5.615472 2.709837 5.973951 0.000000 0.000000 0.000000 -1.951162 -7.132110 -7.756655 0.000000 0.000000 0.000000 0.000000 0.000000 0.000000 -64.779671 -8.170059 87.511414 -14.870784 5.397629 -9.579703 -7.568923 1.613892 -26.132448 0.000000 0.000000 0.000000 68.357613 -1.073956 69.927811 7.584110 -7.359195 -7.488823 -5.215377 29.225311 -38.695107 -5.634532 -5.829313 4.213070 8.514471 -1.485564 -6.446134 -1.687682 1.315947 -2.398790 -13.319741 -5.527262 -2.436843 27.664165 -3.583903 -5.982664 -16.349808 1.832215 -4.057310 
-0.060233 48.596764 -0.806118 1.042814 8.954257 2.808010 5.271186 3.146847 5.985744 0.000000 0.000000 0.000000 -2.121068 -7.570830 -7.576446 0.000000 0.000000 0.000000 0.000000 0.000000 0.000000 -64.949112 -8.392269 88.014816 -15.012712 5.114787 -9.466978 -6.603899 2.053463 -25.443932 0.000000 0.000000 0.000000 67.975983 -1.128559 69.713135 7.841359 -7.461918 -7.359409 -5.126159 28.960255 -39.537579 -5.552947 -5.396748 4.113276 8.422744 -1.485502 -6.529389 -1.651420 1.441007 -2.443799 -12.966189 -5.096972 -1.912781 27.098291 -3.276807 -6.376623 -16.102110 1.623052 -3.875226 
0.225281 48.574371 -0.397440 0.422948 9.478030 3.159503 5.265553 3.672541 5.803479 0.000000 0.000000 0.000000 -0.975020 -9.146869 -7.222517 0.000000 0.000000 0.000000 0.000000 0.000000 0.000000 -65.329659 -8.193289 88.644646 -15.205748 4.996506 -9.588685 -6.171577 2.548122 -25.594532 0.000000 0.000000 0.000000 67.445213 -1.792858 68.960953 7.932757 -7.544116 -7.241427 -5.254910 28.895508 -40.091770 -4.616012 -6.157805 3.371584 8.787934 -1.475934 -6.293489 -1.687981 1.632173 -2.473155 -12.605527 -5.526528 -1.795264 28.670990 -3.486238 -6.477735 -17.155294 1.209650 -3.895414 
0.510796 48.551983 0.011226 -0.180019 10.010859 3.511281 5.268012 4.208189 5.630861 0.000000 0.000000 0.000000 0.166665 -10.724411 -6.900100 0.000000 0.000000 0.000000 0.000000 0.000000 0.000000 -65.709862 -7.979748 89.271568 -15.409834 4.878160 -9.701116 -5.742290 3.044233 -25.749136 0.000000 0.000000 0.000000 66.918419 -2.464599 68.206528 8.022005 -7.637023 -7.134357 -5.382788 28.830980 -40.641476 -3.657110 -6.915714 2.614919 9.141627 -1.475877 -6.057762 -1.733032 1.821383 -2.492308 -12.242179 -5.965075 -1.650310 30.238081 -3.686524 -6.650943 -18.202240 0.811083 -3.904437 
